<svg xmlns="http://www.w3.org/2000/svg" xmlns:xlink="http://www.w3.org/1999/xlink" enable-background="new 0 0 64 64" viewBox="0 0 64 64" id="transfer"><defs><linearGradient id="a"><stop offset="0" stop-color="#000092"></stop><stop offset="1" stop-color="#ff00f3"></stop></linearGradient><linearGradient id="b" x1="4" x2="55.119" y1="32" y2="32" gradientUnits="userSpaceOnUse" xlink:href="#a"></linearGradient></defs><path fill="url(#b)" d="M 15 14.5 C 11.416 14.5 8.5 17.416 8.5 21 C 8.5 24.584 11.416 27.5 15 27.5 C 18.584 27.5 21.5 24.584 21.5 21 C 21.5 17.416 18.584 14.5 15 14.5 z M 49 14.5 C 45.416 14.5 42.5 17.416 42.5 21 C 42.5 24.584 45.416 27.5 49 27.5 C 52.584 27.5 55.5 24.584 55.5 21 C 55.5 17.416 52.584 14.5 49 14.5 z M 15 16.5 C 17.481 16.5 19.5 18.519 19.5 21 C 19.5 23.481 17.481 25.5 15 25.5 C 12.519 25.5 10.5 23.481 10.5 21 C 10.5 18.519 12.519 16.5 15 16.5 z M 49 16.5 C 51.481 16.5 53.5 18.519 53.5 21 C 53.5 23.481 51.481 25.5 49 25.5 C 46.519 25.5 44.5 23.481 44.5 21 C 44.5 18.519 46.519 16.5 49 16.5 z M 33.966797 17.464844 C 33.582672 17.464844 33.19875 17.611297 32.90625 17.904297 C 32.62225 18.186297 32.467797 18.562844 32.466797 18.964844 C 32.466797 19.364844 32.621297 19.741391 32.904297 20.025391 L 33.880859 21 L 29.439453 21 C 29.163453 21 28.939453 21.224 28.939453 21.5 C 28.939453 21.776 29.163453 22 29.439453 22 L 35.087891 22 C 35.289891 22 35.471828 21.878406 35.548828 21.691406 C 35.625828 21.504406 35.583406 21.289484 35.441406 21.146484 L 33.613281 19.318359 C 33.518281 19.223359 33.466797 19.097844 33.466797 18.964844 C 33.466797 18.831844 33.519281 18.706328 33.613281 18.611328 C 33.808281 18.416328 34.125312 18.416328 34.320312 18.611328 L 37.855469 22.146484 C 38.050469 22.341484 38.050469 22.658516 37.855469 22.853516 L 34.320312 26.388672 C 34.125312 26.583672 33.808281 26.583672 33.613281 26.388672 C 33.518281 26.293672 33.466797 26.168156 33.466797 26.035156 C 33.466797 25.901156 33.519281 25.775641 33.613281 25.681641 L 35.441406 23.853516 C 35.584406 23.710516 35.626828 23.495594 35.548828 23.308594 C 35.470828 23.121594 35.289891 23 35.087891 23 L 29.439453 23 C 29.163453 23 28.939453 23.224 28.939453 23.5 C 28.939453 23.776 29.163453 24 29.439453 24 L 33.880859 24 L 32.904297 24.974609 C 32.620297 25.257609 32.465797 25.636109 32.466797 26.037109 C 32.466797 26.438109 32.621297 26.814656 32.904297 27.097656 C 33.196297 27.389656 33.582797 27.535156 33.966797 27.535156 C 34.350797 27.535156 34.735344 27.389656 35.027344 27.097656 L 38.5625 23.5625 C 39.1465 22.9765 39.1465 22.024453 38.5625 21.439453 L 35.027344 17.904297 C 34.735344 17.611297 34.350922 17.464844 33.966797 17.464844 z M 25.498047 21.017578 C 25.222047 21.017578 24.998047 21.241578 24.998047 21.517578 L 24.998047 23.517578 C 24.998047 23.793578 25.222047 24.017578 25.498047 24.017578 C 25.774047 24.017578 25.998047 23.793578 25.998047 23.517578 L 25.998047 21.517578 C 25.998047 21.241578 25.774047 21.017578 25.498047 21.017578 z M 27.498047 21.017578 C 27.222047 21.017578 26.998047 21.241578 26.998047 21.517578 L 26.998047 23.517578 C 26.998047 23.793578 27.222047 24.017578 27.498047 24.017578 C 27.774047 24.017578 27.998047 23.793578 27.998047 23.517578 L 27.998047 21.517578 C 27.998047 21.240578 27.774047 21.017578 27.498047 21.017578 z M 9 29.5 C 6.243 29.5 4 31.743 4 34.5 L 4 48.5 C 4 49.053 4.448 49.5 5 49.5 L 25 49.5 C 25.552 49.5 26 49.053 26 48.5 L 26 34.5 C 26 31.743 23.757 29.5 21 29.5 L 9 29.5 z M 43 29.5 C 40.243 29.5 38 31.743 38 34.5 L 38 48.5 C 38 49.053 38.447 49.5 39 49.5 L 59 49.5 C 59.553 49.5 60 49.053 60 48.5 L 60 34.5 C 60 31.743 57.757 29.5 55 29.5 L 43 29.5 z M 9 31.5 L 21 31.5 C 22.654 31.5 24 32.846 24 34.5 L 24 47.5 L 22 47.5 L 22 36.5 C 22 36.224 21.776 36 21.5 36 C 21.224 36 21 36.224 21 36.5 L 21 47.5 L 9 47.5 L 9 36.5 C 9 36.224 8.776 36 8.5 36 C 8.224 36 8 36.224 8 36.5 L 8 47.5 L 6 47.5 L 6 34.5 C 6 32.846 7.346 31.5 9 31.5 z M 43 31.5 L 55 31.5 C 56.654 31.5 58 32.846 58 34.5 L 58 47.5 L 56 47.5 L 56 36.5 C 56 36.224 55.776 36 55.5 36 C 55.224 36 55 36.224 55 36.5 L 55 47.5 L 43 47.5 L 43 36.5 C 43 36.224 42.776 36 42.5 36 C 42.224 36 42 36.224 42 36.5 L 42 47.5 L 40 47.5 L 40 34.5 C 40 32.846 41.346 31.5 43 31.5 z "></path></svg>